<svg id="visual" viewBox="0 0 1920 150" width="1920" height="150" xmlns="http://www.w3.org/2000/svg" xmlns:xlink="http://www.w3.org/1999/xlink" version="1.1"><rect x="0" y="0" width="1920" height="150" fill="#fff"></rect><path d="M0 75L35.5 82C71 89 142 103 213.2 110.7C284.3 118.3 355.7 119.7 426.8 121.3C498 123 569 125 640 121.3C711 117.7 782 108.3 853.2 103.7C924.3 99 995.7 99 1066.8 98C1138 97 1209 95 1280 95.2C1351 95.3 1422 97.7 1493.2 103.2C1564.3 108.7 1635.7 117.3 1706.8 116C1778 114.7 1849 103.3 1884.5 97.7L1920 92L1920 0L1884.5 0C1849 0 1778 0 1706.8 0C1635.7 0 1564.3 0 1493.2 0C1422 0 1351 0 1280 0C1209 0 1138 0 1066.8 0C995.7 0 924.3 0 853.2 0C782 0 711 0 640 0C569 0 498 0 426.8 0C355.7 0 284.3 0 213.2 0C142 0 71 0 35.5 0L0 0Z" fill="#ffffff"></path><path d="M0 90L35.5 93.7C71 97.3 142 104.7 213.2 102.8C284.3 101 355.7 90 426.8 86C498 82 569 85 640 89.8C711 94.7 782 101.3 853.2 100C924.3 98.7 995.7 89.3 1066.8 88.5C1138 87.7 1209 95.3 1280 92.8C1351 90.3 1422 77.7 1493.2 74.5C1564.3 71.3 1635.7 77.7 1706.8 82C1778 86.3 1849 88.7 1884.5 89.8L1920 91L1920 0L1884.5 0C1849 0 1778 0 1706.8 0C1635.7 0 1564.3 0 1493.2 0C1422 0 1351 0 1280 0C1209 0 1138 0 1066.8 0C995.7 0 924.3 0 853.2 0C782 0 711 0 640 0C569 0 498 0 426.8 0C355.7 0 284.3 0 213.2 0C142 0 71 0 35.5 0L0 0Z" fill="#fcdbd6"></path><path d="M0 67L35.5 69.7C71 72.3 142 77.7 213.2 81.2C284.3 84.7 355.7 86.3 426.8 87.5C498 88.7 569 89.3 640 89.5C711 89.7 782 89.3 853.2 83.8C924.3 78.3 995.7 67.7 1066.8 68.7C1138 69.7 1209 82.3 1280 84.5C1351 86.7 1422 78.3 1493.2 75C1564.3 71.7 1635.7 73.3 1706.8 71.5C1778 69.7 1849 64.3 1884.5 61.7L1920 59L1920 0L1884.5 0C1849 0 1778 0 1706.8 0C1635.7 0 1564.3 0 1493.2 0C1422 0 1351 0 1280 0C1209 0 1138 0 1066.8 0C995.7 0 924.3 0 853.2 0C782 0 711 0 640 0C569 0 498 0 426.8 0C355.7 0 284.3 0 213.2 0C142 0 71 0 35.5 0L0 0Z" fill="#f6b8af"></path><path d="M0 44L35.5 45.3C71 46.7 142 49.3 213.2 52.8C284.3 56.3 355.7 60.7 426.8 63C498 65.3 569 65.7 640 61.8C711 58 782 50 853.2 46.2C924.3 42.3 995.7 42.7 1066.8 45.5C1138 48.3 1209 53.7 1280 59C1351 64.3 1422 69.7 1493.2 72.8C1564.3 76 1635.7 77 1706.8 72.5C1778 68 1849 58 1884.5 53L1920 48L1920 0L1884.5 0C1849 0 1778 0 1706.8 0C1635.7 0 1564.3 0 1493.2 0C1422 0 1351 0 1280 0C1209 0 1138 0 1066.8 0C995.7 0 924.3 0 853.2 0C782 0 711 0 640 0C569 0 498 0 426.8 0C355.7 0 284.3 0 213.2 0C142 0 71 0 35.5 0L0 0Z" fill="#ec9589"></path><path d="M0 40L35.5 43.7C71 47.3 142 54.7 213.2 54.2C284.3 53.7 355.7 45.3 426.8 44.5C498 43.7 569 50.3 640 52.7C711 55 782 53 853.2 52.8C924.3 52.7 995.7 54.3 1066.8 55.7C1138 57 1209 58 1280 56.2C1351 54.3 1422 49.7 1493.2 46.8C1564.3 44 1635.7 43 1706.8 45.3C1778 47.7 1849 53.3 1884.5 56.2L1920 59L1920 0L1884.5 0C1849 0 1778 0 1706.8 0C1635.7 0 1564.3 0 1493.2 0C1422 0 1351 0 1280 0C1209 0 1138 0 1066.8 0C995.7 0 924.3 0 853.2 0C782 0 711 0 640 0C569 0 498 0 426.8 0C355.7 0 284.3 0 213.2 0C142 0 71 0 35.5 0L0 0Z" fill="#df7165"></path><path d="M0 20L35.5 22.2C71 24.3 142 28.7 213.2 31.2C284.3 33.7 355.7 34.3 426.8 33C498 31.7 569 28.3 640 28.3C711 28.3 782 31.7 853.2 35.2C924.3 38.7 995.7 42.3 1066.8 41C1138 39.7 1209 33.3 1280 30.7C1351 28 1422 29 1493.2 27.7C1564.3 26.3 1635.7 22.7 1706.8 21.8C1778 21 1849 23 1884.5 24L1920 25L1920 0L1884.5 0C1849 0 1778 0 1706.8 0C1635.7 0 1564.3 0 1493.2 0C1422 0 1351 0 1280 0C1209 0 1138 0 1066.8 0C995.7 0 924.3 0 853.2 0C782 0 711 0 640 0C569 0 498 0 426.8 0C355.7 0 284.3 0 213.2 0C142 0 71 0 35.5 0L0 0Z" fill="#d04b43"></path><path d="M0 25L35.5 25C71 25 142 25 213.2 22.2C284.3 19.3 355.7 13.7 426.8 12.7C498 11.7 569 15.3 640 15.5C711 15.7 782 12.3 853.2 12.7C924.3 13 995.7 17 1066.8 18.2C1138 19.3 1209 17.7 1280 15.3C1351 13 1422 10 1493.2 11C1564.3 12 1635.7 17 1706.8 20.5C1778 24 1849 26 1884.5 27L1920 28L1920 0L1884.5 0C1849 0 1778 0 1706.8 0C1635.7 0 1564.3 0 1493.2 0C1422 0 1351 0 1280 0C1209 0 1138 0 1066.8 0C995.7 0 924.3 0 853.2 0C782 0 711 0 640 0C569 0 498 0 426.8 0C355.7 0 284.3 0 213.2 0C142 0 71 0 35.5 0L0 0Z" fill="#be1622"></path></svg>