<svg id="visual" viewBox="0 0 1920 150" width="1920" height="150" xmlns="http://www.w3.org/2000/svg" xmlns:xlink="http://www.w3.org/1999/xlink" version="1.1"><rect x="0" y="0" width="1920" height="150" fill="#fff"></rect><path d="M0 60L35.5 53.3C71 46.7 142 33.3 213.2 33.7C284.3 34 355.7 48 426.8 50.3C498 52.7 569 43.3 640 38.7C711 34 782 34 853.2 32C924.3 30 995.7 26 1066.8 26.2C1138 26.3 1209 30.7 1280 34.8C1351 39 1422 43 1493.2 47.7C1564.3 52.3 1635.7 57.7 1706.8 55C1778 52.3 1849 41.7 1884.5 36.3L1920 31L1920 151L1884.5 151C1849 151 1778 151 1706.8 151C1635.7 151 1564.3 151 1493.2 151C1422 151 1351 151 1280 151C1209 151 1138 151 1066.8 151C995.7 151 924.3 151 853.2 151C782 151 711 151 640 151C569 151 498 151 426.8 151C355.7 151 284.3 151 213.2 151C142 151 71 151 35.5 151L0 151Z" fill="#ffffff"></path><path d="M0 78L35.5 79C71 80 142 82 213.2 82.7C284.3 83.3 355.7 82.7 426.8 75.7C498 68.7 569 55.3 640 53.3C711 51.3 782 60.7 853.2 64C924.3 67.3 995.7 64.7 1066.8 65.3C1138 66 1209 70 1280 69.7C1351 69.3 1422 64.7 1493.2 62.3C1564.3 60 1635.7 60 1706.8 57.2C1778 54.3 1849 48.7 1884.5 45.8L1920 43L1920 151L1884.5 151C1849 151 1778 151 1706.8 151C1635.7 151 1564.3 151 1493.2 151C1422 151 1351 151 1280 151C1209 151 1138 151 1066.8 151C995.7 151 924.3 151 853.2 151C782 151 711 151 640 151C569 151 498 151 426.8 151C355.7 151 284.3 151 213.2 151C142 151 71 151 35.5 151L0 151Z" fill="#f1f8fd"></path><path d="M0 67L35.5 67.8C71 68.7 142 70.3 213.2 73C284.3 75.7 355.7 79.3 426.8 78.8C498 78.3 569 73.7 640 72.3C711 71 782 73 853.2 76.8C924.3 80.7 995.7 86.3 1066.8 89.7C1138 93 1209 94 1280 92.5C1351 91 1422 87 1493.2 82.3C1564.3 77.7 1635.7 72.3 1706.8 70.5C1778 68.7 1849 70.3 1884.5 71.2L1920 72L1920 151L1884.5 151C1849 151 1778 151 1706.8 151C1635.7 151 1564.3 151 1493.2 151C1422 151 1351 151 1280 151C1209 151 1138 151 1066.8 151C995.7 151 924.3 151 853.2 151C782 151 711 151 640 151C569 151 498 151 426.8 151C355.7 151 284.3 151 213.2 151C142 151 71 151 35.5 151L0 151Z" fill="#e2f0fb"></path><path d="M0 95L35.5 93.2C71 91.3 142 87.7 213.2 87C284.3 86.3 355.7 88.7 426.8 90.3C498 92 569 93 640 94.7C711 96.3 782 98.7 853.2 97.8C924.3 97 995.7 93 1066.8 90.2C1138 87.3 1209 85.7 1280 85.2C1351 84.7 1422 85.3 1493.2 88.8C1564.3 92.3 1635.7 98.7 1706.8 98.3C1778 98 1849 91 1884.5 87.5L1920 84L1920 151L1884.5 151C1849 151 1778 151 1706.8 151C1635.7 151 1564.3 151 1493.2 151C1422 151 1351 151 1280 151C1209 151 1138 151 1066.8 151C995.7 151 924.3 151 853.2 151C782 151 711 151 640 151C569 151 498 151 426.8 151C355.7 151 284.3 151 213.2 151C142 151 71 151 35.5 151L0 151Z" fill="#d3e9f9"></path><path d="M0 108L35.5 105.2C71 102.3 142 96.7 213.2 97.8C284.3 99 355.7 107 426.8 108.3C498 109.7 569 104.3 640 102.3C711 100.3 782 101.7 853.2 104C924.3 106.3 995.7 109.7 1066.8 108.5C1138 107.3 1209 101.7 1280 100.8C1351 100 1422 104 1493.2 102.5C1564.3 101 1635.7 94 1706.8 95.5C1778 97 1849 107 1884.5 112L1920 117L1920 151L1884.5 151C1849 151 1778 151 1706.8 151C1635.7 151 1564.3 151 1493.2 151C1422 151 1351 151 1280 151C1209 151 1138 151 1066.8 151C995.7 151 924.3 151 853.2 151C782 151 711 151 640 151C569 151 498 151 426.8 151C355.7 151 284.3 151 213.2 151C142 151 71 151 35.5 151L0 151Z" fill="#c4e2f7"></path><path d="M0 120L35.5 120.7C71 121.3 142 122.7 213.2 124.2C284.3 125.7 355.7 127.3 426.8 126.2C498 125 569 121 640 119.8C711 118.7 782 120.3 853.2 121.8C924.3 123.3 995.7 124.7 1066.8 122.3C1138 120 1209 114 1280 112C1351 110 1422 112 1493.2 114.2C1564.3 116.3 1635.7 118.7 1706.8 120C1778 121.3 1849 121.7 1884.5 121.8L1920 122L1920 151L1884.5 151C1849 151 1778 151 1706.8 151C1635.7 151 1564.3 151 1493.2 151C1422 151 1351 151 1280 151C1209 151 1138 151 1066.8 151C995.7 151 924.3 151 853.2 151C782 151 711 151 640 151C569 151 498 151 426.8 151C355.7 151 284.3 151 213.2 151C142 151 71 151 35.5 151L0 151Z" fill="#b4daf4"></path><path d="M0 132L35.5 133.5C71 135 142 138 213.2 136C284.3 134 355.7 127 426.8 125.7C498 124.3 569 128.7 640 128.5C711 128.3 782 123.7 853.2 122C924.3 120.3 995.7 121.7 1066.8 125C1138 128.3 1209 133.7 1280 135.7C1351 137.7 1422 136.3 1493.2 134.2C1564.3 132 1635.7 129 1706.8 129C1778 129 1849 132 1884.5 133.5L1920 135L1920 151L1884.5 151C1849 151 1778 151 1706.8 151C1635.7 151 1564.3 151 1493.2 151C1422 151 1351 151 1280 151C1209 151 1138 151 1066.8 151C995.7 151 924.3 151 853.2 151C782 151 711 151 640 151C569 151 498 151 426.8 151C355.7 151 284.3 151 213.2 151C142 151 71 151 35.5 151L0 151Z" fill="#a4d3f2"></path></svg>