<svg id="visual" viewBox="0 0 1920 150" width="1920" height="150" xmlns="http://www.w3.org/2000/svg" xmlns:xlink="http://www.w3.org/1999/xlink" version="1.1"><rect x="0" y="0" width="1920" height="150" fill="#C7CBDA"></rect><path d="M0 79L35.5 79.8C71 80.7 142 82.3 213.2 85.7C284.3 89 355.7 94 426.8 97.5C498 101 569 103 640 105C711 107 782 109 853.2 110.8C924.3 112.7 995.7 114.3 1066.8 117.3C1138 120.3 1209 124.7 1280 120.5C1351 116.3 1422 103.7 1493.2 98.3C1564.3 93 1635.7 95 1706.8 101C1778 107 1849 117 1884.5 122L1920 127L1920 0L1884.5 0C1849 0 1778 0 1706.8 0C1635.7 0 1564.3 0 1493.2 0C1422 0 1351 0 1280 0C1209 0 1138 0 1066.8 0C995.7 0 924.3 0 853.2 0C782 0 711 0 640 0C569 0 498 0 426.8 0C355.7 0 284.3 0 213.2 0C142 0 71 0 35.5 0L0 0Z" fill="#c7cbda"></path><path d="M0 102L35.5 100.5C71 99 142 96 213.2 97C284.3 98 355.7 103 426.8 103.7C498 104.3 569 100.7 640 95C711 89.3 782 81.7 853.2 79.7C924.3 77.7 995.7 81.3 1066.8 80.2C1138 79 1209 73 1280 74.5C1351 76 1422 85 1493.2 92.7C1564.3 100.3 1635.7 106.7 1706.8 109.7C1778 112.7 1849 112.3 1884.5 112.2L1920 112L1920 0L1884.5 0C1849 0 1778 0 1706.8 0C1635.7 0 1564.3 0 1493.2 0C1422 0 1351 0 1280 0C1209 0 1138 0 1066.8 0C995.7 0 924.3 0 853.2 0C782 0 711 0 640 0C569 0 498 0 426.8 0C355.7 0 284.3 0 213.2 0C142 0 71 0 35.5 0L0 0Z" fill="#c4ccde"></path><path d="M0 72L35.5 68.7C71 65.3 142 58.7 213.2 61.2C284.3 63.7 355.7 75.3 426.8 77.7C498 80 569 73 640 69.5C711 66 782 66 853.2 67.5C924.3 69 995.7 72 1066.8 75C1138 78 1209 81 1280 80.7C1351 80.3 1422 76.7 1493.2 74.5C1564.3 72.3 1635.7 71.7 1706.8 71.7C1778 71.7 1849 72.3 1884.5 72.7L1920 73L1920 0L1884.5 0C1849 0 1778 0 1706.8 0C1635.7 0 1564.3 0 1493.2 0C1422 0 1351 0 1280 0C1209 0 1138 0 1066.8 0C995.7 0 924.3 0 853.2 0C782 0 711 0 640 0C569 0 498 0 426.8 0C355.7 0 284.3 0 213.2 0C142 0 71 0 35.5 0L0 0Z" fill="#bfcde3"></path><path d="M0 58L35.5 58.2C71 58.3 142 58.7 213.2 61.2C284.3 63.7 355.7 68.3 426.8 67.3C498 66.3 569 59.7 640 58.2C711 56.7 782 60.3 853.2 63.7C924.3 67 995.7 70 1066.8 69.7C1138 69.3 1209 65.7 1280 63C1351 60.3 1422 58.7 1493.2 60C1564.3 61.3 1635.7 65.7 1706.8 63.3C1778 61 1849 52 1884.5 47.5L1920 43L1920 0L1884.5 0C1849 0 1778 0 1706.8 0C1635.7 0 1564.3 0 1493.2 0C1422 0 1351 0 1280 0C1209 0 1138 0 1066.8 0C995.7 0 924.3 0 853.2 0C782 0 711 0 640 0C569 0 498 0 426.8 0C355.7 0 284.3 0 213.2 0C142 0 71 0 35.5 0L0 0Z" fill="#bacee7"></path><path d="M0 57L35.5 57.8C71 58.7 142 60.3 213.2 60.8C284.3 61.3 355.7 60.7 426.8 59.5C498 58.3 569 56.7 640 53.3C711 50 782 45 853.2 43.2C924.3 41.3 995.7 42.7 1066.8 43.3C1138 44 1209 44 1280 47C1351 50 1422 56 1493.2 53.7C1564.3 51.3 1635.7 40.7 1706.8 40.2C1778 39.7 1849 49.3 1884.5 54.2L1920 59L1920 0L1884.5 0C1849 0 1778 0 1706.8 0C1635.7 0 1564.3 0 1493.2 0C1422 0 1351 0 1280 0C1209 0 1138 0 1066.8 0C995.7 0 924.3 0 853.2 0C782 0 711 0 640 0C569 0 498 0 426.8 0C355.7 0 284.3 0 213.2 0C142 0 71 0 35.5 0L0 0Z" fill="#b4cfeb"></path><path d="M0 33L35.5 33.3C71 33.7 142 34.3 213.2 36.3C284.3 38.3 355.7 41.7 426.8 41.3C498 41 569 37 640 32.8C711 28.7 782 24.3 853.2 23.5C924.3 22.7 995.7 25.3 1066.8 26.7C1138 28 1209 28 1280 26.3C1351 24.7 1422 21.3 1493.2 20.7C1564.3 20 1635.7 22 1706.8 23.7C1778 25.3 1849 26.7 1884.5 27.3L1920 28L1920 0L1884.5 0C1849 0 1778 0 1706.8 0C1635.7 0 1564.3 0 1493.2 0C1422 0 1351 0 1280 0C1209 0 1138 0 1066.8 0C995.7 0 924.3 0 853.2 0C782 0 711 0 640 0C569 0 498 0 426.8 0C355.7 0 284.3 0 213.2 0C142 0 71 0 35.5 0L0 0Z" fill="#acd1ef"></path><path d="M0 26L35.5 26C71 26 142 26 213.2 23.8C284.3 21.7 355.7 17.3 426.8 16C498 14.7 569 16.3 640 15.3C711 14.3 782 10.7 853.2 11.3C924.3 12 995.7 17 1066.8 20C1138 23 1209 24 1280 23C1351 22 1422 19 1493.2 17.3C1564.3 15.7 1635.7 15.3 1706.8 14C1778 12.7 1849 10.3 1884.5 9.2L1920 8L1920 0L1884.5 0C1849 0 1778 0 1706.8 0C1635.7 0 1564.3 0 1493.2 0C1422 0 1351 0 1280 0C1209 0 1138 0 1066.8 0C995.7 0 924.3 0 853.2 0C782 0 711 0 640 0C569 0 498 0 426.8 0C355.7 0 284.3 0 213.2 0C142 0 71 0 35.5 0L0 0Z" fill="#a4d3f2"></path></svg>